{"title":"Hell Baby 2013 DVDRip XviD-EVO [P2PDL]","uid":9394012,"size":739984795,"categoryP":"video","categoryS":"movies","magnet":"?xt=urn:btih:a1a3c75d6931cc7c912f389a15a66192b71bbfc7&amp;dn=Hell+Baby+2013+DVDRip+XviD-EVO+%5BP2PDL%5D&amp;tr=udp%3A%2F%2Ftracker.openbittorrent.com%3A80&amp;tr=udp%3A%2F%2Fopen.demonii.com%3A1337&amp;tr=udp%3A%2F%2Ftracker.coppersurfer.tk%3A6969&amp;tr=udp%3A%2F%2Fexodus.desync.com%3A6969","seeders":1,"leechers":0,"uploader":"ValidusVyto","files":2,"time":1387944615,"description":"Hell.Baby.2013.DVDRip.XviD-EVO\n\nInfo:\nGeneral\nComplete name                            : Hell.Baby.2013.DVDRip.XviD-EVO.[P2PDL]/Hell.Baby.2013.DVDRip.XviD-EVO.avi\nFormat                                   : AVI\nFormat/Info                              : Audio Video Interleave\nFile size                                : 706 MiB\nDuration                                 : 1h 37mn\nOverall bit rate                         : 1 008 Kbps\n\nVideo\nID                                       : 0\nFormat                                   : MPEG-4 Visual\nFormat profile                           : Simple@L3\nFormat settings, BVOP                    : No\nFormat settings, QPel                    : No\nFormat settings, GMC                     : No warppoints\nFormat settings, Matrix                  : Default (H.263)\nCodec ID                                 : XVID\nCodec ID/Hint                            : XviD\nDuration                                 : 1h 37mn\nSource duration                          : 1h 37mn\nBit rate                                 : 867 Kbps\nWidth                                    : 624 pixels\nHeight                                   : 352 pixels\nDisplay aspect ratio                     : 16:9\nFrame rate                               : 23.976 fps\nColor space                              : YUV\nChroma subsampling                       : 4:2:0\nBit depth                                : 8 bits\nScan type                                : Progressive\nCompression mode                         : Lossy\nBits/(Pixel*Frame)                       : 0.165\nStream size                              : 607 MiB (86%)\nWriting library                          : XviD 1.1.2 (UTC 2006-11-01)\n\nAudio\nID                                       : 1\nFormat                                   : MPEG Audio\nFormat version                           : Version 1\nFormat profile                           : Layer 3\nMode                                     : Joint stereo\nMode extension                           : MS Stereo\nCodec ID                                 : 55\nCodec ID/Hint                            : MP3\nDuration                                 : 1h 37mn\nBit rate mode                            : Constant\nBit rate                                 : 128 Kbps\nChannel(s)                               : 2 channels\nSampling rate                            : 48.0 KHz\nCompression mode                         : Lossy\nStream size                              : 89.6 MiB (13%)\nAlignment                                : Split accross interleaves\nInterleave, duration                     : 24 ms (0.58 video frame)\nInterleave, preload duration             : 5296 ms\nWriting library                          : LAME3.98\n\n\n\n\nScreenshots: &lt;a href=&quot;\nhttp://beeimg.com/images/c51994773511.jpg&quot; rel=&quot;nofollow&quot; target=&quot;_NEW&quot;&gt;\nhttp://beeimg.com/images/c51994773511.jpg&lt;/a&gt; &lt;a href=&quot;\nhttp://beeimg.com/images/l63714429312.jpg&quot; rel=&quot;nofollow&quot; target=&quot;_NEW&quot;&gt;\nhttp://beeimg.com/images/l63714429312.jpg&lt;/a&gt;","torrent":{"xt":"urn:btih:a1a3c75d6931cc7c912f389a15a66192b71bbfc7","amp;dn":"Hell+Baby+2013+DVDRip+XviD-EVO+%5BP2PDL%5D","amp;tr":["udp%3A%2F%2Ftracker.openbittorrent.com%3A80","udp%3A%2F%2Fopen.demonii.com%3A1337","udp%3A%2F%2Ftracker.coppersurfer.tk%3A6969","udp%3A%2F%2Fexodus.desync.com%3A6969"],"infoHash":"a1a3c75d6931cc7c912f389a15a66192b71bbfc7","infoHashBuffer":{"type":"Buffer","data":[161,163,199,93,105,49,204,124,145,47,56,154,21,166,97,146,183,27,191,199]},"announce":[],"urlList":[]}}